<svg version="1.1" viewBox="0.0 0.0 880.8582677165355 574.2755905511812" fill="none" stroke="none" stroke-linecap="square" stroke-miterlimit="10" xmlns:xlink="http://www.w3.org/1999/xlink" xmlns="http://www.w3.org/2000/svg"><clipPath id="p.0"><path d="m0 0l880.8583 0l0 574.2756l-880.8583 0l0 -574.2756z" clip-rule="nonzero"/></clipPath><g clip-path="url(#p.0)"><path fill="#b4a7d6" d="m0 0l880.8583 0l0 574.2756l-880.8583 0z" fill-rule="evenodd"/><path fill="#783f04" d="m571.17584 206.65355l-14.897644 59.59053l-204.7244 0l-14.897644 -59.59053z" fill-rule="evenodd"/><path fill="#e69138" d="m385.42783 224.4567l34.24408 282.4882l68.48819 0l34.24408 -282.4882z" fill-rule="evenodd"/><path fill="#e69138" d="m336.65616 136.98425l234.51968 0l0 69.6693l-234.51968 0z" fill-rule="evenodd"/><path fill="#e69138" d="m316.54593 506.9449l274.74014 0l0 48.0l-274.74014 0z" fill-rule="evenodd"/><path fill="#f6b26b" d="m316.54593 506.9449l1.551178 -6.2047424l271.63782 0l1.5511475 6.2047424z" fill-rule="evenodd"/><path fill="#000000" d="m505.09167 138.34383l-2.8110352 -11.244087l-6.75589 0l-2.8110352 11.244087z" fill-rule="evenodd"/><path fill="#f6b26b" d="m321.96326 136.96326l263.90552 0l0 11.244095l-263.90552 0z" fill-rule="evenodd"/><path fill="#b45f06" d="m336.65616 149.13649l234.51968 0l0 6.204712l-234.51968 0z" fill-rule="evenodd"/><path fill="#000000" d="m412.34543 137.12073l-2.8110046 -11.244087l-6.7559204 0l-2.8110352 11.244087z" fill-rule="evenodd"/><path fill="#000000" d="m418.41028 91.04605l0 0c-2.704895 4.0964737 -2.5779724 8.947304 0.28344727 10.8346405l0 0c1.374115 0.9063339 3.2079468 0.9940796 5.0980835 0.243927c1.8901367 -0.75014496 3.6817322 -2.2767258 4.9806824 -4.243927l0 0c2.7048645 -4.0964737 2.5779724 -8.947311 -0.28347778 -10.8346405l0 0c-2.8614502 -1.8873367 -7.3738403 -0.096473694 -10.078735 4.0z" fill-rule="evenodd"/><path stroke="#000000" stroke-width="1.0" stroke-linejoin="round" stroke-linecap="butt" d="m418.41028 91.04605l0 0c-2.704895 4.0964737 -2.5779724 8.947304 0.28344727 10.8346405l0 0c1.374115 0.9063339 3.2079468 0.9940796 5.0980835 0.243927c1.8901367 -0.75014496 3.6817322 -2.2767258 4.9806824 -4.243927l0 0c2.7048645 -4.0964737 2.5779724 -8.947311 -0.28347778 -10.8346405l0 0c-2.8614502 -1.8873367 -7.3738403 -0.096473694 -10.078735 4.0z" fill-rule="evenodd"/><path fill="#000000" fill-opacity="0.0" d="m406.15646 125.87664c0 -5.8115997 3.13385 -8.623199 6.2677 -11.623199c3.1338806 -3.0 6.2677307 -6.1884003 6.2677307 -12.376801" fill-rule="evenodd"/><path stroke="#000000" stroke-width="3.0" stroke-linejoin="round" stroke-linecap="butt" d="m406.15646 125.87664c0 -5.8115997 3.13385 -8.623199 6.2677 -11.623199c3.1338806 -3.0 6.2677307 -6.1884003 6.2677307 -12.376801" fill-rule="evenodd"/><path fill="#000000" d="m492.71472 137.12073l2.8110352 -11.244087l6.7559204 0l2.8110046 11.244087z" fill-rule="evenodd"/><path fill="#000000" d="m486.6499 91.04605l0 0c2.704895 4.0964737 2.5779724 8.947304 -0.28347778 10.8346405l0 0c-1.374115 0.9063339 -3.2079468 0.9940796 -5.0980835 0.243927c-1.8901062 -0.75014496 -3.6817017 -2.2767258 -4.980652 -4.243927l0 0c-2.704895 -4.0964737 -2.5779724 -8.947311 0.28347778 -10.8346405l0 0c2.8614197 -1.8873367 7.3738403 -0.096473694 10.078735 4.0z" fill-rule="evenodd"/><path stroke="#000000" stroke-width="1.0" stroke-linejoin="round" stroke-linecap="butt" d="m486.6499 91.04605l0 0c2.704895 4.0964737 2.5779724 8.947304 -0.28347778 10.8346405l0 0c-1.374115 0.9063339 -3.2079468 0.9940796 -5.0980835 0.243927c-1.8901062 -0.75014496 -3.6817017 -2.2767258 -4.980652 -4.243927l0 0c-2.704895 -4.0964737 -2.5779724 -8.947311 0.28347778 -10.8346405l0 0c2.8614197 -1.8873367 7.3738403 -0.096473694 10.078735 4.0z" fill-rule="evenodd"/><path fill="#000000" fill-opacity="0.0" d="m498.90372 125.87664c0 -5.8115997 -3.13385 -8.623199 -6.2677307 -11.623199c-3.13385 -3.0 -6.2677 -6.1884003 -6.2677 -12.376801" fill-rule="evenodd"/><path stroke="#000000" stroke-width="3.0" stroke-linejoin="round" stroke-linecap="butt" d="m498.90372 125.87664c0 -5.8115997 -3.13385 -8.623199 -6.2677307 -11.623199c-3.13385 -3.0 -6.2677 -6.1884003 -6.2677 -12.376801" fill-rule="evenodd"/></g></svg>